 <svg
                      width="28"
                      height="28"
                      viewBox="0 0 28 28"
                      fill="none"
                      xmlns="http://www.w3.org/2000/svg"
                    >
                      <path
                        d="M27.9999 10.9426H0V5.31036C0 5.04376 0.216179 4.82758 0.48278 4.82758H27.5172C27.7838 4.82758 28 5.04376 28 5.31036L27.9999 10.9426Z"
                        fill="#82AFFF"
                      ></path>
                      <path
                        d="M27.5172 23.1724H0.48278C0.216179 23.1724 0 22.9562 0 22.6896V17.0575H27.9999V22.6896C27.9999 22.9563 27.7838 23.1724 27.5172 23.1724Z"
                        fill="#73AF00"
                      ></path>
                      <path
                        d="M27.9999 10.9425H0V17.0571H27.9999V10.9425Z"
                        fill="#F5F5F5"
                      ></path>
                      <path
                        d="M27.9999 10.3994H0V11.1619H27.9999V10.3994Z"
                        fill="#FF4B55"
                      ></path>
                      <path
                        d="M27.9999 16.8378H0V17.6002H27.9999V16.8378Z"
                        fill="#FF4B55"
                      ></path>
                      <path
                        d="M6.2063 9.41017C5.21799 9.41017 4.41687 8.61097 4.41687 7.62621C4.41687 6.63785 5.21793 5.83504 6.2063 5.83504C6.21013 5.83504 6.21385 5.83504 6.21757 5.83509C6.27575 5.83586 6.29615 5.75859 6.24485 5.73108C5.94052 5.56795 5.5932 5.47563 5.22395 5.47831C4.04139 5.48673 3.08081 6.46668 3.09338 7.64924C3.10574 8.8196 4.06255 9.76695 5.23943 9.76695C5.60359 9.76695 5.94604 9.6748 6.2466 9.51391C6.29774 9.48652 6.27707 9.40924 6.2191 9.41006C6.21472 9.41017 6.21051 9.41017 6.2063 9.41017Z"
                        fill="#F5F5F5"
                      ></path>
                      <path
                        d="M7.60755 8.91684L7.52765 9.15648L7.27505 9.1584C7.24235 9.15861 7.22878 9.2004 7.25509 9.21981L7.45831 9.36987L7.38207 9.61071C7.37223 9.64189 7.40772 9.6677 7.43435 9.64867L7.63987 9.50178L7.84538 9.64867C7.87202 9.6677 7.90745 9.64189 7.89767 9.61071L7.82143 9.36987L8.02459 9.21981C8.0509 9.2004 8.03734 9.15861 8.00463 9.1584L7.75203 9.15648L7.67213 8.91684C7.6618 8.88583 7.61794 8.88583 7.60755 8.91684Z"
                        fill="#F5F5F5"
                      ></path>
                      <path
                        d="M9.38733 8.91684L9.30744 9.15648L9.05483 9.1584C9.02213 9.15861 9.00857 9.2004 9.03487 9.21981L9.23804 9.36987L9.1618 9.61071C9.15196 9.64189 9.18745 9.6677 9.21408 9.64867L9.4196 9.50178L9.62511 9.64867C9.65175 9.6677 9.68719 9.64189 9.6774 9.61071L9.60116 9.36987L9.80433 9.21981C9.83063 9.2004 9.81707 9.15861 9.78436 9.1584L9.53176 9.15648L9.45186 8.91684C9.44153 8.88583 9.39762 8.88583 9.38733 8.91684Z"
                        fill="#F5F5F5"
                      ></path>
                      <path
                        d="M11.1666 8.91684L11.0867 9.15648L10.8341 9.1584C10.8014 9.15861 10.7879 9.2004 10.8142 9.21981L11.0174 9.36987L10.9412 9.61071C10.9313 9.64189 10.9668 9.6677 10.9934 9.64867L11.199 9.50178L11.4045 9.64867C11.4311 9.6677 11.4665 9.64189 11.4567 9.61071L11.3805 9.36987L11.5837 9.21981C11.61 9.2004 11.5964 9.15861 11.5637 9.1584L11.3111 9.15648L11.2312 8.91684C11.2209 8.88583 11.177 8.88583 11.1666 8.91684Z"
                        fill="#F5F5F5"
                      ></path>
                      <path
                        d="M12.9464 8.91684L12.8665 9.15648L12.6139 9.1584C12.5812 9.15861 12.5677 9.2004 12.594 9.21981L12.7971 9.36987L12.7209 9.61071C12.711 9.64189 12.7465 9.6677 12.7732 9.64867L12.9787 9.50178L13.1842 9.64867C13.2108 9.6677 13.2463 9.64189 13.2365 9.61071L13.1602 9.36987L13.3634 9.21981C13.3897 9.2004 13.3761 9.15861 13.3434 9.1584L13.0908 9.15648L13.0109 8.91684C13.0007 8.88583 12.9568 8.88583 12.9464 8.91684Z"
                        fill="#F5F5F5"
                      ></path>
                      <path
                        d="M14.7262 8.91684L14.6463 9.15648L14.3937 9.1584C14.361 9.15861 14.3474 9.2004 14.3737 9.21981L14.577 9.36987L14.5007 9.61071C14.4909 9.64189 14.5264 9.6677 14.553 9.64867L14.7585 9.50178L14.964 9.64867C14.9907 9.6677 15.0261 9.64189 15.0163 9.61071L14.9401 9.36987L15.1433 9.21981C15.1696 9.2004 15.156 9.15861 15.1233 9.1584L14.8707 9.15648L14.7908 8.91684C14.7804 8.88583 14.7365 8.88583 14.7262 8.91684Z"
                        fill="#F5F5F5"
                      ></path>
                      <path
                        d="M9.38733 7.25587L9.30744 7.49551L9.05483 7.49743C9.02213 7.49765 9.00857 7.53943 9.03487 7.55884L9.23804 7.7089L9.1618 7.94975C9.15196 7.98092 9.18745 8.00673 9.21408 7.9877L9.4196 7.84081L9.62511 7.9877C9.65175 8.00673 9.68719 7.98092 9.6774 7.94975L9.60116 7.7089L9.80433 7.55884C9.83063 7.53943 9.81707 7.49765 9.78436 7.49743L9.53176 7.49551L9.45186 7.25587C9.44153 7.22476 9.39762 7.22476 9.38733 7.25587Z"
                        fill="#F5F5F5"
                      ></path>
                      <path
                        d="M11.1666 7.25587L11.0867 7.49551L10.8341 7.49743C10.8014 7.49765 10.7879 7.53943 10.8142 7.55884L11.0174 7.7089L10.9412 7.94975C10.9313 7.98092 10.9668 8.00673 10.9934 7.9877L11.199 7.84081L11.4045 7.9877C11.4311 8.00673 11.4665 7.98092 11.4567 7.94975L11.3805 7.7089L11.5837 7.55884C11.61 7.53943 11.5964 7.49765 11.5637 7.49743L11.3111 7.49551L11.2312 7.25587C11.2209 7.22476 11.177 7.22476 11.1666 7.25587Z"
                        fill="#F5F5F5"
                      ></path>
                      <path
                        d="M12.9464 7.25587L12.8665 7.49551L12.6139 7.49743C12.5812 7.49765 12.5677 7.53943 12.594 7.55884L12.7971 7.7089L12.7209 7.94975C12.711 7.98092 12.7465 8.00673 12.7732 7.9877L12.9787 7.84081L13.1842 7.9877C13.2108 8.00673 13.2463 7.98092 13.2365 7.94975L13.1602 7.7089L13.3634 7.55884C13.3897 7.53943 13.3761 7.49765 13.3434 7.49743L13.0908 7.49551L13.0109 7.25587C13.0007 7.22476 12.9568 7.22476 12.9464 7.25587Z"
                        fill="#F5F5F5"
                      ></path>
                      <path
                        d="M14.7262 7.25587L14.6463 7.49551L14.3937 7.49743C14.361 7.49765 14.3474 7.53943 14.3737 7.55884L14.577 7.7089L14.5007 7.94975C14.4909 7.98092 14.5264 8.00673 14.553 7.9877L14.7585 7.84081L14.964 7.9877C14.9907 8.00673 15.0261 7.98092 15.0163 7.94975L14.9401 7.7089L15.1433 7.55884C15.1696 7.53943 15.156 7.49765 15.1233 7.49743L14.8707 7.49551L14.7908 7.25587C14.7804 7.22476 14.7365 7.22476 14.7262 7.25587Z"
                        fill="#F5F5F5"
                      ></path>
                      <path
                        d="M11.1666 8.91684L11.0867 9.15648L10.8341 9.1584C10.8014 9.15861 10.7879 9.2004 10.8142 9.21981L11.0174 9.36987L10.9412 9.61071C10.9313 9.64189 10.9668 9.6677 10.9934 9.64867L11.199 9.50178L11.4045 9.64867C11.4311 9.6677 11.4665 9.64189 11.4567 9.61071L11.3805 9.36987L11.5837 9.21981C11.61 9.2004 11.5964 9.15861 11.5637 9.1584L11.3111 9.15648L11.2312 8.91684C11.2209 8.88583 11.177 8.88583 11.1666 8.91684Z"
                        fill="#F5F5F5"
                      ></path>
                      <path
                        d="M11.1666 5.5948L11.0867 5.83444L10.8341 5.83635C10.8014 5.83657 10.7879 5.87835 10.8142 5.89776L11.0174 6.04783L10.9412 6.28867C10.9313 6.31984 10.9668 6.34565 10.9934 6.32662L11.199 6.17973L11.4045 6.32662C11.4311 6.34565 11.4665 6.31984 11.4567 6.28867L11.3805 6.04783L11.5837 5.89776C11.61 5.87835 11.5964 5.83657 11.5637 5.83635L11.3111 5.83444L11.2312 5.5948C11.2209 5.56379 11.177 5.56379 11.1666 5.5948Z"
                        fill="#F5F5F5"
                      ></path>
                      <path
                        d="M12.9464 8.91684L12.8665 9.15648L12.6139 9.1584C12.5812 9.15861 12.5677 9.2004 12.594 9.21981L12.7971 9.36987L12.7209 9.61071C12.711 9.64189 12.7465 9.6677 12.7732 9.64867L12.9787 9.50178L13.1842 9.64867C13.2108 9.6677 13.2463 9.64189 13.2365 9.61071L13.1602 9.36987L13.3634 9.21981C13.3897 9.2004 13.3761 9.15861 13.3434 9.1584L13.0908 9.15648L13.0109 8.91684C13.0007 8.88583 12.9568 8.88583 12.9464 8.91684Z"
                        fill="#F5F5F5"
                      ></path>
                      <path
                        d="M14.7262 8.91684L14.6463 9.15648L14.3937 9.1584C14.361 9.15861 14.3474 9.2004 14.3737 9.21981L14.577 9.36987L14.5007 9.61071C14.4909 9.64189 14.5264 9.6677 14.553 9.64867L14.7585 9.50178L14.964 9.64867C14.9907 9.6677 15.0261 9.64189 15.0163 9.61071L14.9401 9.36987L15.1433 9.21981C15.1696 9.2004 15.156 9.15861 15.1233 9.1584L14.8707 9.15648L14.7908 8.91684C14.7804 8.88583 14.7365 8.88583 14.7262 8.91684Z"
                        fill="#F5F5F5"
                      ></path>
                      <path
                        d="M12.9464 5.5948L12.8665 5.83444L12.6139 5.83635C12.5812 5.83657 12.5677 5.87835 12.594 5.89776L12.7971 6.04783L12.7209 6.28867C12.711 6.31984 12.7465 6.34565 12.7732 6.32662L12.9787 6.17973L13.1842 6.32662C13.2108 6.34565 13.2463 6.31984 13.2365 6.28867L13.1602 6.04783L13.3634 5.89776C13.3897 5.87835 13.3761 5.83657 13.3434 5.83635L13.0908 5.83444L13.0109 5.5948C13.0007 5.56379 12.9568 5.56379 12.9464 5.5948Z"
                        fill="#F5F5F5"
                      ></path>
                      <path
                        d="M14.7262 5.5948L14.6463 5.83444L14.3937 5.83635C14.361 5.83657 14.3474 5.87835 14.3737 5.89776L14.577 6.04783L14.5007 6.28867C14.4909 6.31984 14.5264 6.34565 14.553 6.32662L14.7585 6.17973L14.964 6.32662C14.9907 6.34565 15.0261 6.31984 15.0163 6.28867L14.9401 6.04783L15.1433 5.89776C15.1696 5.87835 15.156 5.83657 15.1233 5.83635L14.8707 5.83444L14.7908 5.5948C14.7804 5.56379 14.7365 5.56379 14.7262 5.5948Z"
                        fill="#F5F5F5"
                      ></path>
                    </svg>